HIERARCHY
ROOT root
{
	OFFSET	0	13.1	24.9
	CHANNELS 6  Xposition Yposition Zposition Xrotation Yrotation Zrotation
	JOINT spine_1
	{
		OFFSET	0	9.99999	0
		CHANNELS 3  Xrotation Yrotation Zrotation
		JOINT spine_2
		{
			OFFSET	0	112	-10
			CHANNELS 3  Xrotation Yrotation Zrotation
			JOINT spine_3
			{
				OFFSET	0	206.5	19.3
				CHANNELS 3  Xrotation Yrotation Zrotation
				JOINT spine_4
				{
					OFFSET	0	110.4	14.6
					CHANNELS 3  Xrotation Yrotation Zrotation
					JOINT neck_1
					{
						OFFSET	0	71.8	-50.3
						CHANNELS 3  Xrotation Yrotation Zrotation
						JOINT neck_2
						{
							OFFSET	0	86.2	-25.8
							CHANNELS 3  Xrotation Yrotation Zrotation
							JOINT head_ee
							{
								OFFSET	0	179.8	-8.7
								CHANNELS 3  Xrotation Yrotation Zrotation
								End Site
								{
									OFFSET	1	0	0
								}
							}
						}
					}
					JOINT left_clavicle
					{
						OFFSET	-43.2	22.4	-70.8
						CHANNELS 3  Xrotation Yrotation Zrotation
						JOINT left_shoulder
						{
							OFFSET	-93.9	-5.79999	48.7
							CHANNELS 3  Xrotation Yrotation Zrotation
							JOINT left_elbow
							{
								OFFSET	-291.4	-30.8	15.2
								CHANNELS 3  Xrotation Yrotation Zrotation
								JOINT left_lowarm_twist
								{
									OFFSET	-110.7	-3.89999	13.6
									CHANNELS 3  Xrotation Yrotation Zrotation
									JOINT left_hand
									{
										OFFSET	-110.7	-3.89999	13.6
										CHANNELS 3  Xrotation Yrotation Zrotation
										JOINT left_ee
										{
											OFFSET	-80.8	-5.10001	12.1
											CHANNELS 3  Xrotation Yrotation Zrotation
											End Site
											{
												OFFSET	1	0	0
											}
										}
									}
								}
							}
						}
					}
					JOINT right_clavicle
					{
						OFFSET	43.2	22.4	-70.8
						CHANNELS 3  Xrotation Yrotation Zrotation
						JOINT right_shoulder
						{
							OFFSET	93.9	-5.79999	48.7
							CHANNELS 3  Xrotation Yrotation Zrotation
							JOINT right_elbow
							{
								OFFSET	291.4	-30.8	15.2
								CHANNELS 3  Xrotation Yrotation Zrotation
								JOINT right_lowarm_twist
								{
									OFFSET	110.7	-3.89999	13.6
									CHANNELS 3  Xrotation Yrotation Zrotation
									JOINT right_hand
									{
										OFFSET	110.7	-3.89999	13.6
										CHANNELS 3  Xrotation Yrotation Zrotation
										JOINT right_ee
										{
											OFFSET	80.8	-5.10001	12.1
											CHANNELS 3  Xrotation Yrotation Zrotation
											End Site
											{
												OFFSET	1	0	0
											}
										}
									}
								}
							}
						}
					}
				}
			}
		}
	}
	JOINT left_hip
	{
		OFFSET	-82.8	-127.5	0.300001
		CHANNELS 3  Xrotation Yrotation Zrotation
		JOINT left_knee
		{
			OFFSET	-28.2	-396.7	2.2
			CHANNELS 3  Xrotation Yrotation Zrotation
			JOINT left_ankle
			{
				OFFSET	-11.7	-411.3	35.4
				CHANNELS 3  Xrotation Yrotation Zrotation
				JOINT left_toes
				{
					OFFSET	0	-60	-88.6
					CHANNELS 3  Xrotation Yrotation Zrotation
					JOINT left_foot_ee
					{
						OFFSET	-22.5	-16.5	-42.2
						CHANNELS 3  Xrotation Yrotation Zrotation
						End Site
						{
							OFFSET	1	0	0
						}
					}
				}
			}
		}
	}
	JOINT right_hip
	{
		OFFSET	82.8	-127.5	0.300001
		CHANNELS 3  Xrotation Yrotation Zrotation
		JOINT right_knee
		{
			OFFSET	28.2	-396.7	2.2
			CHANNELS 3  Xrotation Yrotation Zrotation
			JOINT right_ankle
			{
				OFFSET	11.7	-411.3	35.4
				CHANNELS 3  Xrotation Yrotation Zrotation
				JOINT right_toes
				{
					OFFSET	0	-60	-88.6
					CHANNELS 3  Xrotation Yrotation Zrotation
					JOINT right_foot_ee
					{
						OFFSET	22.5	-16.5	-42.2
						CHANNELS 3  Xrotation Yrotation Zrotation
						End Site
						{
							OFFSET	1	0	0
						}
					}
				}
			}
		}
	}
}
MOTION
Frames: 12
Frame Time: 0.02
2551.86 602.559 -666.956 -145.791 -54.4728 -139.159 9.37987 -0.573561 -4.02644 9.38883 -0.316401 -4.05471 9.39247 -0.122665 -4.06517 9.37022 -0.762627 -3.995 -17.0788 2.66449 1.50016 -17.0919 4.27981 2.38034 -0.0 0.0 -0.0 6.19693 23.6135 11.2894 -37.856 12.6976 60.2549 0.203501 -5.75659 0.0102316 5.37856 0.158213 -0.668559 5.02605 -1.27415 35.4095 -0.0 0.0 -0.0 7.30117 18.8245 -13.5269 -25.1636 5.5328 -57.775 2.15677 46.8881 -0.935379 -75.2158 7.21244 -5.31853 -8.75527 -19.0757 53.3093 0.0 0.0 0.0 54.0998 7.73721 -8.25171 -10.202 0.283757 1.5379 9.21686 28.2726 -1.40078 14.4376 -0.0 -0.0 -0.0 0.0 -0.0 10.6225 -5.07758 -9.87969 -27.2324 -0.140082 -4.13759 30.4202 -23.5561 4.12166 31.2871 -0.0 -0.0 0.0 0.0 0.0 
2575.2 605.835 -654.264 -146.763 -52.3232 -140.698 9.64045 -0.512719 -4.07121 9.64964 -0.25284 -4.09553 9.64793 -0.0753925 -4.10262 9.62517 -0.721844 -4.03943 -17.6859 4.94995 5.29283 -17.6545 6.61816 6.80312 -0.0 0.0 -0.0 7.65858 23.8256 13.3504 -37.1649 11.9495 57.754 0.237551 -6.71163 0.0139293 8.36381 0.218733 -1.04505 6.71847 13.7742 58.3457 -0.0 0.0 -0.0 7.4232 18.6643 -13.8052 -25.4576 5.42048 -59.1269 1.99887 44.7123 -0.822154 -75.0111 7.18629 -5.31905 -9.03093 -21.5387 52.6325 0.0 0.0 0.0 54.3006 9.72105 -10.151 -11.0793 0.295287 1.67202 33.03 21.4148 -4.36316 16.2388 -0.0 -0.0 -0.0 0.0 -0.0 9.82078 -10.7332 -10.1734 -27.0988 -0.144211 -4.1175 36.1452 -25.5988 4.80021 37.6482 -0.0 -0.0 0.0 0.0 0.0 
2602.31 608.038 -653.908 -146.692 -53.4312 -140.354 9.5417 -0.477921 -3.94647 9.55033 -0.22603 -3.96884 9.54766 -0.0470556 -3.97498 9.52625 -0.673751 -3.91784 -17.0605 5.93758 5.29401 -17.0556 8.44948 7.12431 -0.0 0.0 -0.0 8.38551 24.2366 14.3407 -33.6128 11.8186 56.7717 0.200354 -5.66815 0.00991837 6.32788 0.179586 -0.787942 6.2523 11.8941 52.19 -0.0 0.0 -0.0 6.82542 17.1168 -12.6156 -27.1459 5.21421 -59.36 1.81182 41.9048 -0.693816 -77.1544 7.45986 -5.309 -8.55362 -19.0681 51.151 0.0 0.0 0.0 53.8673 8.02991 -9.99666 -17.5334 0.316845 2.66152 32.1914 26.4076 -4.39457 24.0469 -0.0 -0.0 -0.0 0.0 -0.0 10.9875 -7.80336 -8.68557 -29.5758 -0.0600793 -4.48832 31.7196 -26.9227 4.35585 37.27 -0.0 -0.0 0.0 0.0 0.0 
2621.99 611.352 -643.952 -146.726 -54.2888 -141.695 9.29828 -0.4629 -3.35835 9.30452 -0.248387 -3.38096 9.30629 -0.0816098 -3.38908 9.29079 -0.615527 -3.33378 -17.5524 5.04425 4.21423 -17.562 7.37896 5.82561 -0.0 0.0 -0.0 8.29874 23.8609 14.268 -30.9847 11.1453 55.8988 0.209671 -5.92992 0.0108598 3.74921 0.116927 -0.464526 5.62542 8.26674 44.5991 -0.0 0.0 -0.0 7.57041 17.7999 -14.1884 -27.3018 4.68489 -60.3678 1.48601 36.3555 -0.487962 -78.7949 7.66876 -5.29435 -8.01776 -16.7069 48.7176 0.0 0.0 0.0 53.6726 6.85785 -9.97525 -22.1046 0.264701 3.3608 30.2426 27.8702 -4.21224 30.3822 -0.0 -0.0 -0.0 0.0 -0.0 13.6944 -2.19575 -8.67414 -35.5254 0.206904 -5.36177 28.5406 -27.5085 3.99958 37.8727 -0.0 -0.0 0.0 0.0 0.0 
2639.82 619.984 -632.85 -146.688 -54.3099 -141.252 9.31091 -0.468196 -2.83331 9.31533 -0.287032 -2.85733 9.32041 -0.146738 -2.86795 9.30943 -0.597656 -2.80887 -19.1414 2.9729 4.2017 -19.1066 3.52986 5.10164 -0.0 0.0 -0.0 8.6277 22.8763 14.8882 -26.5567 10.0754 54.7714 0.199571 -5.64615 0.00984119 0.783331 0.0269409 -0.0964161 4.57851 7.08216 35.0919 -0.0 0.0 -0.0 7.74169 18.0343 -14.5463 -27.4698 5.21238 -63.8741 1.3284 33.3452 -0.397862 -81.1117 7.9627 -5.26339 -7.37437 -14.0536 45.4662 0.0 0.0 0.0 51.2733 3.62556 -9.68427 -22.169 0.263568 3.37061 27.5293 27.6661 -3.88114 36.197 -0.0 -0.0 -0.0 0.0 -0.0 20.8921 7.08169 -12.6166 -43.4833 0.703112 -6.47889 24.0759 -28.6259 3.47187 38.257 -0.0 -0.0 0.0 0.0 0.0 
2653.82 630.75 -623.851 -146.501 -54.5543 -140.751 9.32288 -0.549444 -2.6141 9.3266 -0.382048 -2.64374 9.33633 -0.252934 -2.65919 9.32709 -0.669589 -2.58595 -20.0221 1.32272 3.50335 -19.988 0.771333 3.80567 -0.0 0.0 -0.0 8.87809 22.2067 15.3603 -23.4476 9.23568 54.411 0.195276 -5.5254 0.00942312 -1.41922 -0.0521622 0.173726 3.73963 6.26105 28.273 -0.0 0.0 -0.0 7.68097 18.5223 -14.379 -27.8077 5.55358 -66.1206 1.19509 30.6249 -0.32723 -82.7919 8.17483 -5.23345 -6.90209 -12.0977 43.0459 0.0 0.0 0.0 49.4489 0.976531 -9.28893 -22.301 0.261212 3.39073 25.555 27.1622 -3.62454 40.1629 -0.0 -0.0 -0.0 0.0 -0.0 26.7732 14.2199 -16.2995 -49.0687 1.14203 -7.21757 20.5753 -28.779 3.01479 38.3638 -0.0 -0.0 0.0 0.0 0.0 
2683.29 620.828 -617.026 -145.866 -54.7582 -139.428 9.58097 -0.676876 -2.97812 9.58577 -0.486087 -3.01511 9.60073 -0.352973 -3.03356 9.58884 -0.827431 -2.93988 -18.77 -0.0903076 3.52808 -18.7409 -2.04253 3.25178 -0.0 0.0 -0.0 7.33771 19.4314 13.3263 -20.1228 7.95933 59.3872 0.242981 -6.86359 0.0145711 -2.40865 -0.0910702 0.294064 3.15239 6.76403 24.1354 -0.0 0.0 -0.0 7.85344 19.8729 -14.6563 -28.0492 5.64384 -67.6747 0.917059 24.4312 -0.198541 -83.8328 8.30571 -5.21176 -6.31509 -9.06259 40.4959 0.0 0.0 0.0 48.515 -1.03574 -9.10978 -26.108 0.173355 3.96824 27.1963 25.5349 -3.78853 40.2659 -0.0 -0.0 -0.0 0.0 -0.0 31.2417 18.1073 -17.5053 -53.4976 1.54024 -7.77129 16.468 -24.8347 2.39305 37.3287 -0.0 -0.0 0.0 0.0 0.0 
2706.46 632.886 -615.192 -145.48 -54.3287 -139.477 9.7899 -0.667008 -3.15882 9.79533 -0.464758 -3.19481 9.80898 -0.335436 -3.21095 9.79557 -0.83809 -3.11784 -16.6891 -1.12785 3.75133 -16.6696 -4.28618 3.11422 -0.0 0.0 -0.0 6.32903 17.4967 11.8795 -17.4673 7.39325 63.9553 0.310933 -8.75648 0.0238062 -3.00472 -0.115512 0.366233 2.69506 6.92029 20.9392 -0.0 0.0 -0.0 7.62752 20.7143 -14.0937 -29.9554 6.64057 -68.2881 0.712366 19.4372 -0.122006 -84.4526 8.38343 -5.1977 -5.84582 -5.70644 39.0415 0.0 0.0 0.0 47.8009 -2.4647 -9.10058 -30.3352 0.0310825 4.60124 28.8372 24.8767 -3.96893 39.8448 -0.0 -0.0 -0.0 0.0 -0.0 34.4784 20.7475 -17.4521 -57.8004 1.96722 -8.27867 13.5428 -18.6176 1.93555 36.602 -0.0 -0.0 0.0 0.0 0.0 
2725.91 637.659 -612.237 -147.063 -53.9254 -140.558 9.49337 -0.705865 -3.60062 9.50046 -0.475473 -3.63818 9.51532 -0.30958 -3.65601 9.49776 -0.882726 -3.56144 -15.8083 -1.77747 4.10923 -15.7934 -5.79091 3.25757 -0.0 0.0 -0.0 5.66405 16.1336 10.8737 -15.4072 7.07868 67.165 0.390126 -10.9382 0.0373526 -3.41897 -0.132941 0.416239 2.38001 6.81141 18.7053 -0.0 0.0 -0.0 7.67331 20.6684 -14.1979 -30.9436 7.57112 -69.1252 0.574566 15.8877 -0.0801768 -85.0497 8.45814 -5.18336 -5.50417 -3.33789 37.8029 0.0 0.0 0.0 47.3508 -3.4578 -8.96405 -32.6591 -0.0669353 4.94436 29.7932 24.2761 -4.0663 39.4311 -0.0 -0.0 -0.0 0.0 -0.0 38.8068 22.1998 -18.6906 -60.378 2.24094 -8.56696 11.1294 -13.9398 1.58471 35.8745 -0.0 -0.0 0.0 0.0 0.0 
2738.25 642.385 -611.46 -147.805 -51.6532 -141.182 9.29984 -0.65928 -3.89215 9.30818 -0.410472 -3.92614 9.31889 -0.217911 -3.9415 9.29819 -0.837196 -3.85784 -16.4695 -0.731723 6.56353 -16.3766 -5.14264 5.90743 -0.0 0.0 -0.0 4.74473 13.2786 9.40905 -11.2611 7.49995 69.0844 0.48395 -13.4815 0.0572005 -2.00056 -0.0747705 0.24451 2.33077 6.81181 18.3653 -0.0 0.0 -0.0 7.22598 21.6886 -13.1316 -31.7064 9.15733 -68.3799 0.521345 14.4809 -0.0662358 -84.5678 8.39786 -5.195 -4.8771 1.82665 35.8109 0.0 0.0 0.0 44.5612 -3.34804 -9.25487 -26.5787 0.159831 4.03921 26.9163 23.1899 -3.7056 37.6689 -0.0 -0.0 -0.0 0.0 -0.0 43.6606 18.2278 -17.6822 -63.4422 2.58292 -8.89342 6.49171 -3.75752 0.93605 37.2647 -0.0 -0.0 0.0 0.0 0.0 
2751.68 651.33 -597.273 -149.526 -50.4783 -143.358 9.19464 -0.606307 -3.95909 9.20329 -0.353357 -3.98958 9.21018 -0.150019 -4.00237 9.18868 -0.779745 -3.92866 -15.3717 -0.0203486 7.83612 -15.2188 -4.65177 7.39275 -0.0 0.0 -0.0 4.50802 10.8832 8.99289 -10.0084 7.52934 69.5451 0.538843 -14.9455 0.0706798 0.846965 0.0290712 -0.104264 2.53598 4.51536 18.9481 -0.0 0.0 -0.0 7.90163 22.0332 -14.5854 -32.1916 10.3109 -68.3763 0.339374 9.54328 -0.0283289 -84.3574 8.3715 -5.19992 -4.24224 5.42965 32.637 0.0 0.0 0.0 42.2683 -3.3547 -9.84576 -26.4366 0.163976 4.01779 26.2214 22.4208 -3.60812 36.8863 -0.0 -0.0 -0.0 0.0 -0.0 45.4574 11.0691 -14.5563 -64.2189 2.67236 -8.97326 0.593137 8.30896 0.0904933 37.618 -0.0 -0.0 0.0 0.0 0.0 
2771.5 658.728 -611.098 -150.126 -48.9161 -144.373 9.12509 -0.587337 -3.97754 9.13383 -0.333254 -4.00679 9.13943 -0.124048 -4.01869 9.1177 -0.756669 -3.94887 -15.3843 0.0805442 6.82373 -15.2671 -3.85998 6.46794 -0.0 0.0 -0.0 6.3576 9.29318 12.2548 -10.5556 7.26602 68.7001 0.783026 -21.2006 0.146546 4.50883 0.136898 -0.559505 2.33214 1.84217 16.5089 -0.0 0.0 -0.0 8.31672 22.2511 -15.4816 -32.5527 11.894 -68.304 0.196975 5.57317 -0.00958749 -84.0916 8.33819 -5.20599 -3.15701 10.7251 26.7933 0.0 0.0 0.0 41.8561 -1.95803 -8.66953 -26.4779 0.162776 4.02403 25.7009 19.3257 -3.4972 35.7483 -0.0 -0.0 -0.0 0.0 -0.0 46.4564 1.63143 -12.3241 -63.843 2.62893 -8.93476 -7.04431 19.496 -1.18572 37.6584 -0.0 -0.0 0.0 0.0 0.0 
